<svg width="161" height="241" viewBox="0 0 161 241" fill="none" xmlns="http://www.w3.org/2000/svg">
<path d="M8.06348 0.376877C8.06961 0.379123 8.0759 0.381445 8.08203 0.383713L151.856 53.5539C157.351 55.5862 161 60.8256 161 66.6847V174.105C161 179.964 157.351 185.204 151.856 187.236L8.08203 240.407C8.0757 240.409 8.06883 240.411 8.0625 240.413C4.15341 241.859 0 238.967 0 234.799V171.109C0 166.473 2.29553 162.137 6.13017 159.531L27.96 144.693L46.6748 131.975C54.8487 126.419 54.8486 114.372 46.6748 108.816L38.1367 103.014L6.13036 81.2602C2.2956 78.6539 0 74.318 0 69.6814V5.99245C0 1.82391 4.15365 -1.06877 8.06348 0.376877Z" fill="white"/>
</svg>
